<svg width="79" height="80" viewBox="0 0 79 80" fill="none" xmlns="http://www.w3.org/2000/svg">
<g clip-path="url(#clip0_4202_358)">
<path d="M39.8507 63.5001C41.1274 63.5001 42.1623 62.4711 42.1623 61.2018C42.1623 59.9325 41.1274 58.9035 39.8507 58.9035C38.574 58.9035 37.5391 59.9325 37.5391 61.2018C37.5391 62.4711 38.574 63.5001 39.8507 63.5001Z" fill="#66CC99"/>
<path d="M39.8507 20.2633C41.1274 20.2633 42.1623 19.2343 42.1623 17.965C42.1623 16.6957 41.1274 15.6667 39.8507 15.6667C38.574 15.6667 37.5391 16.6957 37.5391 17.965C37.5391 19.2343 38.574 20.2633 39.8507 20.2633Z" fill="#66CC99"/>
<path d="M13.8691 29.1067C14.8507 29.1067 15.6465 28.3155 15.6465 27.3396C15.6465 26.3637 14.8507 25.5725 13.8691 25.5725C12.8875 25.5725 12.0918 26.3637 12.0918 27.3396C12.0918 28.3155 12.8875 29.1067 13.8691 29.1067Z" fill="#66CC99"/>
<path d="M13.8691 53.593C14.8507 53.593 15.6465 52.8018 15.6465 51.8259C15.6465 50.8499 14.8507 50.0588 13.8691 50.0588C12.8875 50.0588 12.0918 50.8499 12.0918 51.8259C12.0918 52.8018 12.8875 53.593 13.8691 53.593Z" fill="#66CC99"/>
<path d="M65.6445 29.1067C66.6261 29.1067 67.4219 28.3155 67.4219 27.3396C67.4219 26.3637 66.6261 25.5725 65.6445 25.5725C64.6629 25.5725 63.8672 26.3637 63.8672 27.3396C63.8672 28.3155 64.6629 29.1067 65.6445 29.1067Z" fill="#66CC99"/>
<path d="M65.6445 53.593C66.6261 53.593 67.4219 52.8018 67.4219 51.8259C67.4219 50.8499 66.6261 50.0588 65.6445 50.0588C64.6629 50.0588 63.8672 50.8499 63.8672 51.8259C63.8672 52.8018 64.6629 53.593 65.6445 53.593Z" fill="#66CC99"/>
<path d="M39.6628 53.034C40.4723 53.034 41.1284 52.3816 41.1284 51.5768C41.1284 50.7721 40.4723 50.1197 39.6628 50.1197C38.8534 50.1197 38.1973 50.7721 38.1973 51.5768C38.1973 52.3816 38.8534 53.034 39.6628 53.034Z" fill="#66CC99"/>
<path d="M39.6628 28.6735C40.4723 28.6735 41.1284 28.0211 41.1284 27.2164C41.1284 26.4117 40.4723 25.7593 39.6628 25.7593C38.8534 25.7593 38.1973 26.4117 38.1973 27.2164C38.1973 28.0211 38.8534 28.6735 39.6628 28.6735Z" fill="#66CC99"/>
<path d="M23.1484 41.475C24.13 41.475 24.9258 40.6839 24.9258 39.7079C24.9258 38.732 24.13 37.9408 23.1484 37.9408C22.1668 37.9408 21.3711 38.732 21.3711 39.7079C21.3711 40.6839 22.1668 41.475 23.1484 41.475Z" fill="#66CC99"/>
<path d="M56.3027 41.475C57.2843 41.475 58.0801 40.6839 58.0801 39.7079C58.0801 38.732 57.2843 37.9408 56.3027 37.9408C55.3211 37.9408 54.5254 38.732 54.5254 39.7079C54.5254 40.6839 55.3211 41.475 56.3027 41.475Z" fill="#66CC99"/>
<path d="M40.4343 64.8049H38.9688V71.5116H40.4343V64.8049Z" fill="#66CC99"/>
<path d="M40.4343 54.4818H38.9688V57.9484H40.4343V54.4818Z" fill="#66CC99"/>
<path d="M40.4343 21.2687H38.9688V24.7353H40.4343V21.2687Z" fill="#66CC99"/>
<path d="M40.4343 44.3588H38.9688V48.5977H40.4343V44.3588Z" fill="#66CC99"/>
<path d="M20.1718 38.4574C16.3 35.8916 14.2988 30.8857 14.2148 30.6737L15.5792 30.1426C15.5978 30.1903 17.5017 34.9365 20.9845 37.2454L20.1718 38.4574Z" fill="#66CC99"/>
<path d="M15.5792 49.113L14.2148 48.5818C14.2974 48.3698 16.3 43.364 20.1718 40.7981L20.9845 42.0102C17.5017 44.3177 15.5991 49.0653 15.5792 49.113Z" fill="#66CC99"/>
<path d="M59.2248 38.4574L58.4121 37.2454C61.8949 34.9378 63.7974 30.1903 63.8174 30.1426L65.1817 30.6737C65.0991 30.8857 63.0966 35.8916 59.2248 38.4574Z" fill="#66CC99"/>
<path d="M63.8155 49.113C63.7968 49.0653 61.8929 44.319 58.4102 42.0102L59.2229 40.7981C63.0947 43.364 65.0959 48.3698 65.1798 48.5818L63.8155 49.113Z" fill="#66CC99"/>
<path d="M26.2333 38.7131L25.3047 37.5858C25.3606 37.5394 30.9898 32.9429 36.2486 27.9715L37.2585 29.0272C31.9584 34.0371 26.2893 38.6667 26.2333 38.7118V38.7131Z" fill="#66CC99"/>
<path d="M36.432 51.051C30.8775 46.4173 25.1217 42.5056 25.0645 42.4658L25.8905 41.2617C25.9491 41.3015 31.7648 45.2542 37.374 49.9343L36.432 51.051Z" fill="#66CC99"/>
<path d="M53.3025 38.7131C53.2465 38.6667 47.5774 34.0384 42.2773 29.0285L43.2873 27.9728C48.5474 32.9442 54.1752 37.5421 54.2311 37.5871L53.3025 38.7144V38.7131Z" fill="#66CC99"/>
<path d="M43.1041 51.051L42.1621 49.9343C47.7713 45.2556 53.5883 41.3015 53.6456 41.2617L54.4716 42.4658C54.4143 42.5043 48.6559 46.42 43.1041 51.051Z" fill="#66CC99"/>
<path d="M31.7777 20.2534L30.7949 21.3344L36.5386 26.496L37.5213 25.4151L31.7777 20.2534Z" fill="#66CC99"/>
<path d="M47.7749 20.2581L42.0312 25.4197L43.014 26.5007L48.7577 21.3391L47.7749 20.2581Z" fill="#66CC99"/>
<path d="M36.5386 52.6749L30.7949 57.8365L31.7777 58.9175L37.5213 53.7558L36.5386 52.6749Z" fill="#66CC99"/>
<path d="M43.014 52.6683L42.0312 53.7493L47.7749 58.9109L48.7577 57.83L43.014 52.6683Z" fill="#66CC99"/>
<path d="M53.1374 19.1916C54.5627 19.1916 55.7181 18.0429 55.7181 16.6258C55.7181 15.2087 54.5627 14.0599 53.1374 14.0599C51.7121 14.0599 50.5566 15.2087 50.5566 16.6258C50.5566 18.0429 51.7121 19.1916 53.1374 19.1916Z" fill="#66CC99"/>
<path d="M25.9382 19.1916C27.3635 19.1916 28.5189 18.0429 28.5189 16.6258C28.5189 15.2087 27.3635 14.0599 25.9382 14.0599C24.5129 14.0599 23.3574 15.2087 23.3574 16.6258C23.3574 18.0429 24.5129 19.1916 25.9382 19.1916Z" fill="#66CC99"/>
<path d="M53.1081 65.3082C54.5334 65.3082 55.6888 64.1595 55.6888 62.7424C55.6888 61.3253 54.5334 60.1765 53.1081 60.1765C51.6828 60.1765 50.5273 61.3253 50.5273 62.7424C50.5273 64.1595 51.6828 65.3082 53.1081 65.3082Z" fill="#66CC99"/>
<path d="M39.8386 6.73191C41.7084 6.73191 43.2241 5.22492 43.2241 3.36595C43.2241 1.50699 41.7084 0 39.8386 0C37.9689 0 36.4531 1.50699 36.4531 3.36595C36.4531 5.22492 37.9689 6.73191 39.8386 6.73191Z" fill="#66CC99"/>
<path d="M39.8386 0C41.7079 0 43.2241 1.50746 43.2241 3.36595C43.2241 5.22445 41.7079 6.73191 39.8386 6.73191C37.9693 6.73191 36.4531 5.22445 36.4531 3.36595C36.4531 1.50746 37.9693 0 39.8386 0Z" fill="#66CC99"/>
<path d="M9.32404 18.6671C9.36268 18.7161 9.40265 18.7638 9.44262 18.8115C9.44262 18.8115 9.44528 18.8141 9.44528 18.8154C9.6518 19.0512 9.89162 19.2592 10.1568 19.4301C10.1608 19.4327 10.1634 19.434 10.1674 19.4367C10.2167 19.4685 10.266 19.499 10.318 19.5281C10.322 19.5307 10.3273 19.5334 10.3313 19.536C10.3846 19.5665 10.4392 19.5957 10.4952 19.6221C10.9482 19.846 11.4598 19.9732 12.0007 19.9732C13.87 19.9732 15.3862 18.4657 15.3862 16.6072C15.3862 15.725 15.0438 14.9223 14.4855 14.3222C14.4829 14.3195 14.4802 14.3169 14.4775 14.3142C14.4389 14.2732 14.3989 14.2321 14.3576 14.1924C14.351 14.1858 14.3443 14.1805 14.3377 14.1738C14.299 14.1367 14.2604 14.1023 14.2204 14.0665C14.2137 14.0612 14.2071 14.0546 14.1991 14.0493C14.1565 14.0122 14.1125 13.9778 14.0685 13.9433C14.0645 13.9407 14.0619 13.938 14.0579 13.9354C13.9073 13.8201 13.7474 13.7181 13.5795 13.6294C13.1079 13.3817 12.571 13.2413 12.0007 13.2413C10.1314 13.2413 8.61523 14.7487 8.61523 16.6072C8.61523 17.3835 8.88037 18.0988 9.32537 18.6684L9.32404 18.6671Z" fill="#66CC99"/>
<path d="M35.1255 3.21097C27.4459 4.12763 20.3085 7.40218 14.5781 12.6796C15.0031 12.9565 15.3802 13.2996 15.696 13.6943C21.1786 8.6818 27.9908 5.57151 35.3174 4.69856C35.1908 4.27599 35.1229 3.82958 35.1229 3.36595C35.1229 3.31429 35.1255 3.26263 35.1269 3.21097H35.1255Z" fill="#66CC99"/>
<path d="M39.8382 8.05656C39.7969 8.05656 39.7542 8.05391 39.7129 8.05391H39.0801V14.762H40.5457V8.05391H39.9634C39.9221 8.05391 39.8808 8.05656 39.8382 8.05656Z" fill="#66CC99"/>
<path d="M24.5266 15.6627H23.5447C23.4234 15.9595 23.3555 16.284 23.3555 16.6244C23.3555 16.794 23.3728 16.9596 23.4048 17.1199H24.5266V15.6627Z" fill="#66CC99"/>
<path d="M22.0571 17.1199C22.0357 16.9583 22.0237 16.7927 22.0237 16.6244C22.0237 16.292 22.0664 15.9701 22.145 15.6627H16.6211C16.6837 15.9674 16.717 16.2827 16.717 16.6059C16.717 16.7794 16.7064 16.9503 16.6877 17.1199H22.0557H22.0571Z" fill="#66CC99"/>
<path d="M3.38549 42.5228C5.25524 42.5228 6.77097 41.0158 6.77097 39.1569C6.77097 37.2979 5.25524 35.7909 3.38549 35.7909C1.51573 35.7909 0 37.2979 0 39.1569C0 41.0158 1.51573 42.5228 3.38549 42.5228Z" fill="#66CC99"/>
<path d="M6.77142 39.1569C6.77142 37.6626 5.79214 36.3976 4.43715 35.9578C4.31457 37.1513 4.25195 38.3568 4.25195 39.5728C4.25195 40.5146 4.29059 41.4512 4.36387 42.3797C5.75617 41.9625 6.77008 40.6776 6.77008 39.1569H6.77142Z" fill="#66CC99"/>
<path d="M2.93515 35.8214C1.27905 36.0399 0 37.4494 0 39.1569C0 40.8643 1.23908 42.2314 2.85921 42.4831C2.78327 41.52 2.7433 40.5491 2.7433 39.5728C2.7433 38.3117 2.80858 37.0599 2.93382 35.8214H2.93515Z" fill="#66CC99"/>
<path d="M4.59921 34.6239C5.30002 29.6524 7.05472 24.934 9.75271 20.7296C9.30505 20.4871 8.90135 20.1745 8.55627 19.8076C5.68773 24.2386 3.82911 29.2233 3.09766 34.4755C3.19359 34.4702 3.28951 34.4662 3.38544 34.4662C3.80513 34.4662 4.2115 34.5219 4.59921 34.6239Z" fill="#66CC99"/>
<path d="M4.43817 35.9565C4.10642 35.8492 3.75335 35.7896 3.38695 35.7896C3.23373 35.7896 3.08451 35.8002 2.93662 35.82C2.81005 37.0586 2.74609 38.3104 2.74609 39.5715C2.74609 40.5478 2.78606 41.5187 2.86201 42.4818C3.03388 42.5082 3.20842 42.5228 3.38828 42.5228C3.72936 42.5228 4.05712 42.4725 4.36756 42.3797C4.29428 41.4512 4.25564 40.5146 4.25564 39.5728C4.25564 38.3568 4.31826 37.1513 4.44084 35.9578L4.43817 35.9565Z" fill="#66CC99"/>
<path d="M23.1746 24.7446L16.2651 18.6114C16.0519 19.0592 15.7681 19.4672 15.4297 19.8235L22.2646 25.8891C22.4884 25.448 22.7989 25.0599 23.1759 24.7446H23.1746Z" fill="#66CC99"/>
<path d="M23.764 29.01C23.764 29.01 23.7666 29.0126 23.7679 29.014C23.8212 29.0749 23.8772 29.1332 23.9372 29.1888C24.3502 29.5756 24.9058 29.8141 25.5186 29.8141C26.3141 29.8141 27.0149 29.414 27.4306 28.806C27.6824 28.4377 27.8289 27.994 27.8289 27.5158C27.8289 27.2906 27.7943 27.0733 27.7343 26.868C27.6904 26.7183 27.6317 26.5753 27.5598 26.4402C27.1721 25.7142 26.4033 25.2188 25.5186 25.2188C24.2423 25.2188 23.207 26.2481 23.207 27.5171C23.207 28.088 23.4175 28.6086 23.764 29.0113V29.01Z" fill="#66CC99"/>
<path d="M28.6671 25.6983C28.9309 25.3566 29.1921 25.0122 29.4479 24.6585C32.8867 19.9149 35.6193 14.1407 37.5805 7.48298C37.1129 7.22865 36.6918 6.89616 36.3374 6.50539C34.4202 13.2187 31.7182 19.0207 28.2981 23.7537C28.0929 24.0385 27.8824 24.318 27.6719 24.5962C28.0756 24.8916 28.4153 25.2665 28.6685 25.6983H28.6671Z" fill="#66CC99"/>
<path d="M10.6333 38.3727C12.6625 37.811 15.8028 36.6771 19.239 34.4663C20.9031 33.3959 22.4885 32.1719 23.9888 30.8023C23.5291 30.5903 23.1227 30.287 22.791 29.9134C21.436 31.1321 20.0104 32.2289 18.5195 33.1933C13.7897 36.2545 9.60078 37.2149 7.80078 37.5037C7.97132 37.9527 8.07524 38.4336 8.09789 38.9343C8.72543 38.8323 9.58879 38.6601 10.6333 38.3713V38.3727Z" fill="#66CC99"/>
<path d="M23.5487 48.4069C22.1791 47.1962 20.7415 46.1034 19.2386 45.1364C15.8025 42.9255 12.6621 41.7916 10.633 41.2299C9.45251 40.9028 8.50255 40.7253 7.86303 40.6312C7.69515 41.1319 7.446 41.5955 7.12891 42.0062C8.27739 42.1347 13.0352 42.8606 18.5178 46.4094C19.8968 47.3022 21.2211 48.3063 22.4855 49.4163C22.7666 49.0136 23.129 48.6692 23.5474 48.4083L23.5487 48.4069Z" fill="#66CC99"/>
<path d="M27.7785 51.2417C27.7625 51.0867 27.7319 50.937 27.6866 50.794C27.6639 50.7224 27.6386 50.6522 27.6093 50.5833C27.5507 50.4456 27.4787 50.3158 27.3961 50.1926C27.3761 50.1634 27.3535 50.1369 27.3335 50.1091C27.3108 50.0787 27.2882 50.0455 27.2629 50.0164C27.1217 49.8455 26.9564 49.6972 26.7712 49.5726C26.6487 49.4905 26.5168 49.419 26.3782 49.3607C26.3222 49.3368 26.2636 49.317 26.2037 49.2984C26.1637 49.2865 26.1251 49.2733 26.0851 49.2627C25.9878 49.2362 25.8892 49.2163 25.788 49.2017C25.6867 49.1872 25.5841 49.1805 25.4789 49.1805C25.3989 49.1805 25.3203 49.1845 25.243 49.1925C25.0872 49.2084 24.9366 49.2388 24.7927 49.2839C24.7221 49.3064 24.6528 49.3315 24.5849 49.3594C24.5143 49.3885 24.445 49.4216 24.3784 49.4574C24.3317 49.4826 24.2864 49.5091 24.2411 49.5382C23.928 49.7369 23.6682 50.0084 23.4817 50.3277C23.2845 50.6668 23.1699 51.0576 23.1699 51.4775C23.1699 51.5967 23.1819 51.712 23.1992 51.8259C23.2792 52.3465 23.5337 52.8101 23.904 53.1532C24.012 53.2525 24.1279 53.3439 24.2518 53.4221C24.2931 53.4486 24.3357 53.4737 24.3797 53.4963C24.5103 53.5665 24.6488 53.6261 24.794 53.6698C24.9393 53.7148 25.0898 53.7453 25.2444 53.7612C25.3217 53.7691 25.4003 53.7731 25.4802 53.7731C25.8 53.7731 26.1037 53.7082 26.3795 53.593C26.4195 53.5757 26.4581 53.5559 26.4968 53.5373C26.5927 53.491 26.6846 53.4406 26.7726 53.381C27.099 53.1625 27.3641 52.8604 27.5427 52.5094C27.7012 52.1981 27.7918 51.8484 27.7918 51.4762C27.7918 51.3967 27.7878 51.3185 27.7798 51.2417H27.7785Z" fill="#66CC99"/>
<path d="M12.4148 66.5349C14.2845 66.5349 15.8003 65.0279 15.8003 63.1689C15.8003 61.3099 14.2845 59.803 12.4148 59.803C10.545 59.803 9.0293 61.3099 9.0293 63.1689C9.0293 65.0279 10.545 66.5349 12.4148 66.5349Z" fill="#66CC99"/>
<path d="M15.0279 61.0296L14.7827 61.2468L13.8061 60.1593L13.8501 60.1196C13.4144 59.9156 12.9268 59.8016 12.4125 59.8016C11.8982 59.8016 11.3799 59.9235 10.9336 60.1394C12.0301 61.6429 13.2532 63.0722 14.5989 64.4101C14.8081 64.6181 15.0199 64.8247 15.2344 65.0261C15.5901 64.4936 15.798 63.8551 15.798 63.1676C15.798 62.3556 15.5089 61.6098 15.0266 61.0283L15.0279 61.0296Z" fill="#66CC99"/>
<path d="M9.75747 61.0826C9.30047 61.6562 9.02734 62.3807 9.02734 63.1689C9.02734 65.0274 10.5436 66.5349 12.4128 66.5349C13.0444 66.5349 13.6359 66.3627 14.1422 66.062C13.937 65.8672 13.7345 65.6712 13.5333 65.4712C12.1477 64.0935 10.8886 62.6258 9.75747 61.0812V61.0826Z" fill="#66CC99"/>
<path d="M25.9382 60.1752C24.6471 60.1752 23.5813 61.1183 23.3907 62.3476C23.3854 62.3768 23.3814 62.4059 23.3774 62.4364C23.3734 62.4655 23.3707 62.496 23.3681 62.5251C23.3614 62.5967 23.3574 62.6682 23.3574 62.741C23.3574 62.8205 23.3614 62.9 23.3694 62.9768C23.3734 63.0152 23.3787 63.0537 23.3841 63.0921C23.3894 63.1265 23.3934 63.1623 23.4001 63.1967C23.4094 63.2484 23.42 63.2987 23.4334 63.3477C23.4374 63.365 23.4414 63.3822 23.4467 63.3981C23.4627 63.4564 23.48 63.5146 23.4987 63.5716C23.8464 64.581 24.8057 65.3069 25.9395 65.3069C27.3651 65.3069 28.5203 64.1584 28.5203 62.741C28.5203 61.3237 27.3651 60.1752 25.9395 60.1752H25.9382Z" fill="#66CC99"/>
<path d="M17.1149 63.5729H22.1165C22.0579 63.3054 22.0259 63.0272 22.0259 62.7411C22.0259 62.5278 22.0446 62.3198 22.0779 62.1158H17.0137C17.0923 62.4549 17.1349 62.806 17.1349 63.1689C17.1349 63.3054 17.1283 63.4405 17.1163 63.5729H17.1149Z" fill="#66CC99"/>
<path d="M10.9343 60.1408C10.4733 60.3633 10.0722 60.6878 9.75781 61.0826C10.889 62.6271 12.148 64.0949 13.5337 65.4725C13.7349 65.6725 13.9374 65.8686 14.1426 66.0633C14.5809 65.8037 14.954 65.45 15.2351 65.0287C15.0206 64.8261 14.8087 64.6207 14.5996 64.4128C13.2526 63.0735 12.0308 61.6456 10.9343 60.1421V60.1408Z" fill="#66CC99"/>
<path d="M10.1676 59.0453C7.08453 54.4606 5.14463 49.2335 4.49578 43.715C4.14005 43.8011 3.76832 43.8475 3.38461 43.8475C3.25137 43.8475 3.1208 43.8408 2.99023 43.8302C3.66307 49.6428 5.70955 55.1468 8.97113 59.9659C9.3162 59.599 9.7199 59.2863 10.1676 59.0453Z" fill="#66CC99"/>
<path d="M14.7839 61.2468L15.029 61.0296C14.7106 60.6468 14.3096 60.3341 13.8526 60.1209L13.8086 60.1606L14.7852 61.2482L14.7839 61.2468Z" fill="#66CC99"/>
<path d="M16.0208 60.1487L22.9064 54.0381C22.5559 53.6897 22.2775 53.2724 22.0923 52.8074L14.9043 59.187C15.3253 59.448 15.7024 59.7738 16.0208 60.1487Z" fill="#66CC99"/>
<path d="M39.8386 80C41.7084 80 43.2241 78.493 43.2241 76.634C43.2241 74.7751 41.7084 73.2681 39.8386 73.2681C37.9689 73.2681 36.4531 74.7751 36.4531 76.634C36.4531 78.493 37.9689 80 39.8386 80Z" fill="#66CC99"/>
<path d="M39.8383 73.2681C38.7298 73.2681 37.7452 73.798 37.127 74.6166C37.941 74.6722 38.7604 74.7 39.5838 74.7C40.5697 74.7 41.5477 74.6577 42.5189 74.5795C41.8994 73.7821 40.9295 73.2681 39.8383 73.2681Z" fill="#66CC99"/>
<path d="M36.5011 76.0724C36.4704 76.2552 36.4531 76.4433 36.4531 76.6341C36.4531 78.4925 37.9693 80 39.8386 80C41.7079 80 43.2241 78.4925 43.2241 76.6341C43.2241 76.4274 43.2041 76.2261 43.1681 76.0287C41.9837 76.1413 40.7886 76.1996 39.5841 76.1996C38.5489 76.1996 37.5203 76.1559 36.5011 76.0711V76.0724Z" fill="#66CC99"/>
<path d="M72.5719 41.981L72.5293 41.2538L72.5706 41.9823L72.5719 41.981Z" fill="#66CC99"/>
<path d="M37.6794 72.4654C35.7115 65.6632 32.9455 59.7698 29.4481 54.9454C29.1151 54.4871 28.7753 54.0394 28.4302 53.5996C28.1398 53.997 27.7707 54.3334 27.3457 54.5865C27.6681 54.9998 27.9866 55.4197 28.297 55.8502C31.7691 60.6534 34.5017 66.5587 36.4243 73.4019C36.7854 73.0244 37.209 72.7064 37.6794 72.4654Z" fill="#66CC99"/>
<path d="M37.1275 74.6166C36.8104 75.0365 36.5919 75.5319 36.5 76.0724C37.5206 76.1559 38.5478 76.2009 39.583 76.2009C40.7875 76.2009 41.9839 76.1426 43.167 76.03C43.0685 75.4909 42.842 74.9968 42.5182 74.5795C41.5469 74.659 40.5676 74.7 39.583 74.7C38.7597 74.7 37.9403 74.6722 37.1262 74.6166H37.1275Z" fill="#66CC99"/>
<path d="M16.2262 65.9268C15.9278 66.3335 15.564 66.6912 15.1523 66.9839C20.7948 71.9673 27.7297 75.0604 35.1721 75.9386C35.2494 75.4207 35.4133 74.9319 35.6465 74.4841C28.4305 73.6933 21.6981 70.734 16.2262 65.9268Z" fill="#66CC99"/>
<path d="M53.919 53.7758C55.1957 53.7758 56.2307 52.7468 56.2307 51.4775C56.2307 50.2082 55.1957 49.1792 53.919 49.1792C52.6424 49.1792 51.6074 50.2082 51.6074 51.4775C51.6074 52.7468 52.6424 53.7758 53.919 53.7758Z" fill="#66CC99"/>
<path d="M52.9316 53.5519C53.2314 53.6936 53.5658 53.7744 53.9202 53.7744C54.4705 53.7744 54.9755 53.5824 55.3725 53.2631L54.1427 52.1716C53.731 52.6193 53.3273 53.079 52.933 53.5519H52.9316Z" fill="#66CC99"/>
<path d="M54.841 49.37C54.5585 49.2481 54.2467 49.1792 53.919 49.1792C53.6405 49.1792 53.3754 49.2309 53.1289 49.3196L54.0549 50.1409C54.3147 49.8786 54.5758 49.6217 54.841 49.37Z" fill="#66CC99"/>
<path d="M55.9325 50.3502C55.6687 50.6006 55.4075 50.8536 55.1504 51.1132L56.1656 52.014C56.2069 51.8418 56.2323 51.6616 56.2323 51.4775C56.2323 51.0682 56.123 50.684 55.9338 50.3515L55.9325 50.3502Z" fill="#66CC99"/>
<path d="M51.9698 50.2456C51.742 50.6019 51.6074 51.0231 51.6074 51.4775C51.6074 51.8616 51.7033 52.2219 51.8712 52.5399C52.2563 52.0829 52.648 51.6364 53.0477 51.2006L51.9711 50.2456H51.9698Z" fill="#66CC99"/>
<path d="M54.142 52.1716L55.3717 53.2631C55.7608 52.9505 56.0445 52.5134 56.1645 52.014L55.1492 51.1132C54.8081 51.4576 54.4724 51.8113 54.1406 52.1716H54.142Z" fill="#66CC99"/>
<path d="M54.0564 50.1422L53.1305 49.321C52.6495 49.4958 52.2431 49.823 51.9727 50.2456L53.0492 51.2006C53.3809 50.8403 53.7154 50.4867 54.0564 50.1422Z" fill="#66CC99"/>
<path d="M53.0476 51.2006C52.6478 51.6351 52.2561 52.0815 51.8711 52.5399C52.1029 52.9823 52.476 53.3373 52.9303 53.5519C53.326 53.079 53.7297 52.6193 54.1401 52.1716L53.0462 51.2006H53.0476Z" fill="#66CC99"/>
<path d="M50.9889 53.6261C50.6505 54.0566 50.3174 54.4964 49.991 54.9454C46.5096 59.746 43.7543 65.6036 41.7891 72.3647C42.262 72.5793 42.6937 72.8694 43.0681 73.2191C44.988 66.4541 47.702 60.611 51.1421 55.8502C51.4486 55.425 51.763 55.0103 52.0814 54.6024C51.6537 54.3533 51.282 54.0195 50.9889 53.6261Z" fill="#66CC99"/>
<path d="M54.0566 50.1422L55.1518 51.1132C55.409 50.8536 55.6714 50.6006 55.9339 50.3502C55.6874 49.917 55.305 49.57 54.8427 49.37C54.5776 49.623 54.3164 49.88 54.0566 50.1409V50.1422Z" fill="#66CC99"/>
<path d="M53.0469 51.2006L54.1407 52.1716C54.4725 51.8113 54.8082 51.4576 55.1493 51.1132L54.0541 50.1422C53.713 50.4866 53.3773 50.8403 53.0469 51.2006Z" fill="#66CC99"/>
<path d="M66.7742 66.5349C68.6439 66.5349 70.1596 65.0279 70.1596 63.1689C70.1596 61.3099 68.6439 59.803 66.7742 59.803C64.9044 59.803 63.3887 61.3099 63.3887 63.1689C63.3887 65.0279 64.9044 66.5349 66.7742 66.5349Z" fill="#66CC99"/>
<path d="M65.0312 66.0553C65.5402 66.36 66.1358 66.5349 66.7726 66.5349C68.6419 66.5349 70.1581 65.0274 70.1581 63.1689C70.1581 62.3741 69.881 61.6442 69.4173 61.0693C68.2835 62.6179 67.0204 64.0909 65.6321 65.4725C65.4336 65.6699 65.2324 65.8646 65.0312 66.0567V66.0553Z" fill="#66CC99"/>
<path d="M68.2365 60.1328C67.7929 59.9209 67.2972 59.803 66.7723 59.803C66.2473 59.803 65.753 59.9209 65.3107 60.1328L65.3427 60.1606L64.3661 61.2482L64.1436 61.0508C63.8878 61.3647 63.6866 61.725 63.5573 62.1171H63.6506V63.5743H63.4121C63.4761 64.1028 63.6626 64.5929 63.9424 65.0168C64.1516 64.8181 64.3607 64.6168 64.5659 64.4128C65.9142 63.0722 67.1387 61.6403 68.2365 60.1341V60.1328Z" fill="#66CC99"/>
<path d="M55.6085 62.1158H55.0742V63.5729H55.5472C55.6378 63.312 55.6884 63.0325 55.6884 62.7411C55.6884 62.5251 55.6591 62.3158 55.6085 62.1158Z" fill="#66CC99"/>
<path d="M62.1765 62.1158H56.9683C57.0016 62.3198 57.0203 62.5291 57.0203 62.7411C57.0203 63.0259 56.9883 63.304 56.9297 63.5729H62.0739C62.0619 63.4391 62.0552 63.3054 62.0552 63.1689C62.0552 62.8073 62.0978 62.4549 62.1765 62.1158Z" fill="#66CC99"/>
<path d="M63.6511 62.1158H63.5579C63.4486 62.447 63.3887 62.8007 63.3887 63.1689C63.3887 63.3054 63.398 63.4405 63.414 63.5729H63.6525V62.1158H63.6511Z" fill="#66CC99"/>
<path d="M68.2375 60.1328C67.1396 61.6389 65.9152 63.0709 64.5669 64.4114C64.3617 64.6154 64.1525 64.8168 63.9434 65.0155C64.2232 65.438 64.5949 65.7944 65.0319 66.0553C65.2344 65.8633 65.4343 65.6685 65.6328 65.4712C67.0211 64.0909 68.2841 62.6179 69.418 61.068C69.1009 60.6746 68.6985 60.3527 68.2375 60.1328Z" fill="#66CC99"/>
<path d="M62.9545 65.9189C57.6025 70.6254 51.0421 73.5622 44.002 74.4298C44.2418 74.8749 44.4096 75.3624 44.4949 75.8777C51.7522 74.9226 58.5085 71.856 64.0257 66.98C63.6141 66.6859 63.253 66.3282 62.9545 65.9202V65.9189Z" fill="#66CC99"/>
<path d="M64.2638 59.2002L57.241 52.9664C57.0345 53.4181 56.7387 53.8208 56.375 54.1507L63.1526 60.1659C63.4697 59.7884 63.8441 59.4625 64.2638 59.1989V59.2002Z" fill="#66CC99"/>
<path d="M65.3436 60.1606L65.3117 60.1328C64.8573 60.35 64.459 60.664 64.1445 61.0495L64.367 61.2468L65.3436 60.1593V60.1606Z" fill="#66CC99"/>
<path d="M37.668 36.5738C37.7612 36.4956 37.8598 36.4228 37.9624 36.3552C37.8598 36.4228 37.7626 36.4956 37.668 36.5738Z" fill="#66CC99"/>
<path d="M43.1303 38.37C43.1129 38.2972 43.093 38.2243 43.0703 38.1528C43.093 38.2243 43.1116 38.2972 43.1303 38.37Z" fill="#66CC99"/>
<path d="M37.2461 36.9924C37.2074 37.0387 37.1701 37.0851 37.1328 37.1328C37.1688 37.0851 37.2074 37.0387 37.2461 36.9924Z" fill="#66CC99"/>
<path d="M41.5645 42.0526C41.7936 41.9174 42.0055 41.7545 42.196 41.5704C42.0055 41.7545 41.7936 41.9161 41.5645 42.0526Z" fill="#66CC99"/>
<path d="M37.2402 41.3147C37.2775 41.3598 37.3162 41.4022 37.3561 41.4445C37.3162 41.4022 37.2775 41.3584 37.2402 41.3147Z" fill="#66CC99"/>
<path d="M40.4343 30.2207H38.9688V34.4596H40.4343V30.2207Z" fill="#66CC99"/>
<path d="M43.0703 38.1514C43.0517 38.0945 43.033 38.0375 43.0117 37.9819C43.033 38.0375 43.053 38.0945 43.0703 38.1514Z" fill="#66CC99"/>
<path d="M42.3184 36.8665C42.4449 37.0016 42.5595 37.1474 42.6634 37.301C42.5608 37.146 42.4449 37.0016 42.3184 36.8665Z" fill="#66CC99"/>
<path d="M28.5517 29.5173C28.2785 29.9267 27.9228 30.2764 27.5098 30.5453L35.4039 37.5527C35.5784 37.0785 35.8276 36.64 36.138 36.2506L28.5517 29.5173Z" fill="#66CC99"/>
<path d="M36.7409 37.7991C36.6383 38.0322 36.5597 38.2773 36.5117 38.5343C36.5597 38.2773 36.637 38.0309 36.7409 37.7991Z" fill="#66CC99"/>
<path d="M37.1321 37.1328C37.0934 37.1831 37.0575 37.2348 37.0215 37.2878C37.0561 37.2348 37.0934 37.1831 37.1321 37.1328Z" fill="#66CC99"/>
<path d="M27.1914 48.2811C27.6324 48.5156 28.0201 48.8388 28.3292 49.2243L36.2487 42.1956C35.9263 41.8207 35.6638 41.3942 35.4719 40.9319L27.1914 48.2811Z" fill="#66CC99"/>
<path d="M37.0156 41.0154C37.0849 41.12 37.1595 41.2193 37.2408 41.3147C37.1609 41.2193 37.0849 41.1187 37.0156 41.0154Z" fill="#66CC99"/>
<path d="M42.1973 41.5704C42.3745 41.3995 42.5317 41.2101 42.6689 41.0034C42.533 41.2088 42.3745 41.3995 42.1973 41.5704Z" fill="#66CC99"/>
<path d="M43.1927 42.4526L50.9696 49.3554C51.2601 48.9567 51.6291 48.6189 52.0555 48.3659L44.0521 41.2631C43.8283 41.7042 43.5378 42.1055 43.1914 42.4526H43.1927Z" fill="#66CC99"/>
<path d="M43.1042 40.047C43.1282 39.9596 43.1482 39.8708 43.1655 39.7808C43.1681 39.7688 43.1695 39.7582 43.1721 39.7463C43.1881 39.6576 43.2001 39.5675 43.2094 39.4761C43.2094 39.4655 43.2108 39.4549 43.2121 39.4443C43.2201 39.3503 43.2254 39.2536 43.2254 39.1569C43.2254 39.0787 43.2214 39.0019 43.2161 38.925C43.2161 38.9065 43.2134 38.8879 43.2121 38.8694C43.2054 38.7926 43.1975 38.7171 43.1855 38.6429C43.1735 38.5674 43.1588 38.4932 43.1428 38.4203C43.1388 38.4031 43.1348 38.3872 43.1308 38.37C43.1135 38.2972 43.0935 38.2243 43.0709 38.1528L42.2075 38.9184L41.2309 37.8309L42.3181 36.8665C42.2808 36.8255 42.2408 36.787 42.2022 36.7486C42.1995 36.746 42.1969 36.7447 42.1955 36.742C42.1582 36.7062 42.1196 36.6705 42.0809 36.636C42.0769 36.6321 42.0716 36.6281 42.0676 36.6241C42.0303 36.5923 41.993 36.5605 41.9544 36.5287C41.9477 36.5234 41.941 36.5181 41.9344 36.5128C41.8971 36.4837 41.8598 36.4559 41.8211 36.4281C41.8131 36.4214 41.8038 36.4161 41.7958 36.4095C41.7585 36.383 41.7212 36.3579 41.6839 36.334C41.6732 36.3274 41.6626 36.3208 41.6519 36.3141C41.616 36.2916 41.5787 36.2691 41.5413 36.2479C41.5294 36.2413 41.516 36.2333 41.504 36.2267C41.4681 36.2068 41.4321 36.187 41.3948 36.1684C41.3801 36.1618 41.3668 36.1539 41.3522 36.1472C41.3162 36.13 41.2802 36.1128 41.2442 36.0956C41.2282 36.0889 41.2136 36.081 41.1976 36.0744C41.1616 36.0585 41.127 36.0439 41.091 36.0307C41.0737 36.024 41.0564 36.0174 41.0391 36.0108C41.0044 35.9975 40.9684 35.9856 40.9338 35.9737C40.9151 35.9671 40.8965 35.9605 40.8765 35.9552C40.8419 35.9446 40.8072 35.934 40.7713 35.9234C40.7513 35.9181 40.7313 35.9114 40.71 35.9061C40.6753 35.8969 40.6407 35.8889 40.6047 35.881C40.5834 35.8757 40.5621 35.8704 40.5408 35.8664C40.5061 35.8585 40.4701 35.8532 40.4355 35.8465C40.4142 35.8426 40.3915 35.8386 40.3702 35.8346C40.3342 35.8293 40.2983 35.8253 40.261 35.82C40.2396 35.8174 40.217 35.8134 40.1957 35.8121C40.157 35.8081 40.1184 35.8055 40.0784 35.8028C40.0584 35.8015 40.0385 35.7988 40.0185 35.7988C39.9612 35.7962 39.9039 35.7949 39.8466 35.7949C39.8439 35.7949 39.8426 35.7949 39.8399 35.7949C39.8399 35.7949 39.8399 35.7949 39.8386 35.7949C39.7747 35.7949 39.712 35.7975 39.6494 35.8002C39.6281 35.8002 39.6081 35.8028 39.5881 35.8055C39.5455 35.8081 39.5029 35.8121 39.4602 35.8174C39.4362 35.82 39.4136 35.8227 39.3909 35.8267C39.351 35.832 39.3123 35.8373 39.2724 35.8439C39.2497 35.8479 39.2257 35.8518 39.2031 35.8558C39.1631 35.8638 39.1231 35.8717 39.0832 35.881C39.0619 35.8863 39.0419 35.8903 39.0206 35.8956C38.9726 35.9075 38.926 35.9207 38.8793 35.934C38.8673 35.9379 38.8553 35.9406 38.8434 35.9446C38.7847 35.9631 38.7261 35.983 38.6688 36.0042C38.6568 36.0081 38.6462 36.0134 38.6342 36.0174C38.5889 36.0346 38.5436 36.0532 38.4983 36.0717C38.481 36.0797 38.4636 36.0876 38.4463 36.0956C38.4077 36.1128 38.369 36.1313 38.3317 36.1499C38.3131 36.1592 38.2958 36.1684 38.2771 36.1777C38.2398 36.1976 38.2025 36.2174 38.1665 36.2373C38.1505 36.2466 38.1332 36.2559 38.1172 36.2651C38.0773 36.289 38.0373 36.3141 37.9973 36.3393C37.9867 36.3459 37.9747 36.3526 37.964 36.3605C37.8614 36.4281 37.7642 36.5009 37.6696 36.5791C37.6602 36.587 37.6509 36.595 37.6416 36.6029C37.6043 36.6347 37.5683 36.6665 37.5337 36.6983C37.5217 36.7089 37.5097 36.7208 37.4977 36.7314C37.4657 36.7619 37.4337 36.7937 37.4018 36.8268C37.3898 36.8387 37.3791 36.8506 37.3671 36.8625C37.3351 36.897 37.3032 36.9314 37.2725 36.9672C37.2645 36.9765 37.2552 36.9871 37.2472 36.9963C37.2086 37.0427 37.1713 37.0891 37.134 37.1368L37.92 37.8348L36.9434 38.9224L36.5117 38.5396C36.4931 38.6389 36.4784 38.7409 36.4691 38.8429C36.4691 38.8548 36.4678 38.8654 36.4664 38.8774C36.4625 38.9171 36.4598 38.9582 36.4571 38.9979C36.4545 39.0522 36.4531 39.1065 36.4531 39.1608C36.4531 39.2257 36.4558 39.292 36.4598 39.3556C36.4598 39.3728 36.4624 39.39 36.4638 39.4072C36.4678 39.4562 36.4718 39.5039 36.4771 39.5529C36.4784 39.5701 36.4811 39.586 36.4838 39.6033C36.4904 39.6549 36.4984 39.7053 36.5078 39.7569C36.5104 39.7688 36.5117 39.7808 36.5144 39.7914C36.5264 39.8536 36.5397 39.9146 36.5544 39.9755L36.9434 39.6298L37.92 40.7173L37.2419 41.3187C37.2792 41.3637 37.3178 41.4061 37.3578 41.4485C37.3631 41.4538 37.3684 41.4604 37.3738 41.4657C37.4084 41.5015 37.4431 41.5373 37.479 41.573C37.487 41.581 37.4963 41.5889 37.5043 41.5969C37.5377 41.6287 37.5723 41.6605 37.6083 41.6909C37.6176 41.7002 37.6283 41.7081 37.6389 41.7174C37.6736 41.7466 37.7095 41.7757 37.7442 41.8035C37.7548 41.8115 37.7655 41.8207 37.7761 41.8287C37.8134 41.8565 37.8508 41.8843 37.8881 41.9108C37.8987 41.9174 37.908 41.9254 37.9187 41.932C37.96 41.9598 38.0013 41.9876 38.0439 42.0141C38.0506 42.0181 38.0586 42.0234 38.0653 42.0274C38.1665 42.0896 38.2718 42.1466 38.381 42.1983C38.3837 42.1983 38.3864 42.2009 38.3877 42.2009C38.4383 42.2248 38.4889 42.2473 38.5396 42.2685C38.5542 42.2751 38.5689 42.2804 38.5835 42.2857C38.6235 42.3016 38.6621 42.3162 38.7035 42.3307C38.7221 42.3374 38.7421 42.344 38.7607 42.3506C38.7967 42.3625 38.834 42.3744 38.8713 42.385C38.8926 42.3917 38.914 42.397 38.9366 42.4036C38.9726 42.4129 39.0072 42.4221 39.0432 42.4314C39.0659 42.4367 39.0885 42.442 39.1125 42.4473C39.1485 42.4553 39.1844 42.4619 39.2204 42.4685C39.2444 42.4725 39.267 42.4778 39.291 42.4804C39.3283 42.487 39.3656 42.491 39.4029 42.4963C39.4256 42.499 39.4482 42.5029 39.4722 42.5056C39.5135 42.5096 39.5535 42.5135 39.5948 42.5162C39.6148 42.5175 39.6348 42.5202 39.6547 42.5202C39.716 42.5228 39.7773 42.5255 39.8399 42.5255C39.8972 42.5255 39.9559 42.5241 40.0118 42.5215C40.0345 42.5215 40.0558 42.5175 40.0784 42.5162C40.1131 42.5135 40.1477 42.5122 40.181 42.5082C40.2103 42.5056 40.2383 42.5016 40.2676 42.4976C40.2943 42.4937 40.3209 42.491 40.3476 42.487C40.3809 42.4817 40.4142 42.4751 40.4475 42.4698C40.4688 42.4658 40.4901 42.4632 40.5114 42.4579C40.5474 42.45 40.5834 42.442 40.6194 42.4341C40.6367 42.4301 40.654 42.4261 40.6727 42.4221C40.7126 42.4115 40.7513 42.4009 40.7899 42.389C40.8032 42.385 40.8166 42.3824 40.8299 42.3771C40.8712 42.3639 40.9125 42.3506 40.9538 42.336C40.9644 42.3321 40.9738 42.3294 40.9844 42.3254C41.0284 42.3095 41.071 42.2936 41.1123 42.2764C41.1203 42.2738 41.127 42.2711 41.135 42.2671C41.1789 42.2486 41.2242 42.2287 41.2669 42.2089C41.2722 42.2062 41.2762 42.2049 41.2815 42.2022C41.3268 42.181 41.3721 42.1585 41.4161 42.1347C41.4188 42.1334 41.4214 42.132 41.4254 42.1307C41.4707 42.1069 41.516 42.0817 41.5613 42.0552C41.5613 42.0552 41.564 42.0539 41.5653 42.0526C41.7945 41.9174 42.0063 41.7545 42.1969 41.5704L41.2309 40.7133L42.2075 39.6258L43.0096 40.3371C43.0429 40.2497 43.0722 40.1596 43.0975 40.0682C43.1002 40.0603 43.1015 40.0536 43.1042 40.0457V40.047Z" fill="#66CC99"/>
<path d="M41.2324 37.8309L42.209 38.9184L43.0724 38.1528C43.0537 38.0958 43.0351 38.0388 43.0138 37.9832C43.0084 37.9686 43.0018 37.9541 42.9964 37.9395C42.9805 37.8984 42.9631 37.856 42.9458 37.8163C42.9392 37.8004 42.9312 37.7845 42.9232 37.7673C42.9058 37.7275 42.8872 37.6891 42.8672 37.6507C42.8592 37.6362 42.8526 37.6203 42.8446 37.6057C42.8232 37.5659 42.8019 37.5262 42.7793 37.4865C42.7726 37.4745 42.7659 37.4626 42.7593 37.4507C42.7326 37.4057 42.7047 37.3606 42.6753 37.3156C42.6727 37.3103 42.6687 37.3063 42.666 37.301C42.5634 37.146 42.4475 37.0016 42.3209 36.8665L41.2338 37.8309H41.2324Z" fill="#66CC99"/>
<path d="M36.9434 38.9184L37.92 37.8309L37.1339 37.1328C37.0953 37.1831 37.0593 37.2348 37.0233 37.2878C37.022 37.2904 37.0207 37.2917 37.0193 37.2944C36.9874 37.3421 36.9554 37.3924 36.9261 37.4414C36.9207 37.4507 36.9154 37.46 36.9101 37.4706C36.8848 37.5143 36.8595 37.5593 36.8355 37.6044C36.8301 37.615 36.8248 37.6242 36.8195 37.6348C36.7955 37.6825 36.7715 37.7302 36.7502 37.7792C36.7475 37.7858 36.7435 37.7925 36.7409 37.8004C36.6383 38.0335 36.5597 38.2786 36.5117 38.5356L36.9434 38.9184Z" fill="#66CC99"/>
<path d="M37.9184 40.7133L36.9418 39.6258L36.5527 39.9715C36.5847 40.0974 36.622 40.2192 36.6673 40.3385C36.6886 40.3954 36.7113 40.4511 36.7366 40.5054C36.7406 40.5133 36.7446 40.5213 36.7473 40.5292C36.7686 40.5769 36.7912 40.6233 36.8152 40.6696C36.8205 40.6802 36.8259 40.6895 36.8312 40.6988C36.8552 40.7438 36.8792 40.7888 36.9058 40.8339C36.9111 40.8418 36.9151 40.8511 36.9205 40.859C36.9498 40.9081 36.9791 40.9557 37.0111 41.0034C37.0124 41.0061 37.0151 41.0087 37.0164 41.0114C37.0857 41.116 37.1603 41.2154 37.2416 41.3108L37.9197 40.7094L37.9184 40.7133Z" fill="#66CC99"/>
<path d="M41.2318 40.7133L42.1978 41.5704C42.375 41.3995 42.5322 41.2101 42.6694 41.0034C42.6707 41.0008 42.6734 40.9981 42.6747 40.9955C42.7054 40.9491 42.7347 40.9014 42.764 40.8524C42.768 40.8458 42.772 40.8378 42.776 40.8312C42.8013 40.7862 42.8266 40.7411 42.8506 40.6948C42.8546 40.6855 42.8599 40.6776 42.8639 40.6683C42.8879 40.6219 42.9106 40.5742 42.9319 40.5265C42.9345 40.5199 42.9385 40.512 42.9412 40.5054C42.9652 40.451 42.9878 40.3954 43.0091 40.3384L42.2071 39.6271L41.2305 40.7146L41.2318 40.7133Z" fill="#66CC99"/>
<path d="M36.6693 40.3398C36.624 40.2206 36.5853 40.0974 36.5547 39.9728C36.5867 40.0987 36.624 40.2206 36.6693 40.3398Z" fill="#66CC99"/>
<path d="M53.919 29.8141C55.1957 29.8141 56.2307 28.7851 56.2307 27.5158C56.2307 26.2465 55.1957 25.2175 53.919 25.2175C52.6424 25.2175 51.6074 26.2465 51.6074 27.5158C51.6074 28.7851 52.6424 29.8141 53.919 29.8141Z" fill="#66CC99"/>
<path d="M56.0526 26.6296L54.5977 27.9211C54.9507 28.292 55.3105 28.655 55.6742 29.0087C56.0206 28.6073 56.2311 28.0867 56.2311 27.5158C56.2311 27.2018 56.1672 26.9025 56.0526 26.6296Z" fill="#66CC99"/>
<path d="M55.0853 25.5341C54.7429 25.3341 54.3445 25.2175 53.9195 25.2175C53.4239 25.2175 52.9656 25.3738 52.5898 25.6374C52.9243 26.0481 53.2653 26.4494 53.6118 26.8428L55.0867 25.5341H55.0853Z" fill="#66CC99"/>
<path d="M53.5037 28.8934L52.7949 29.5226C53.128 29.7081 53.5117 29.8141 53.9208 29.8141C54.074 29.8141 54.2219 29.7982 54.3671 29.7703C54.0766 29.4829 53.7875 29.1928 53.5037 28.8934Z" fill="#66CC99"/>
<path d="M51.704 26.8667C51.6427 27.0733 51.6094 27.2906 51.6094 27.5158C51.6094 27.8469 51.6813 28.1609 51.8079 28.4444L52.518 27.8138C52.2436 27.5025 51.9718 27.1886 51.704 26.8667Z" fill="#66CC99"/>
<path d="M54.5991 27.9211L53.5039 28.8921C53.7877 29.1901 54.0755 29.4816 54.3673 29.769C54.8869 29.6683 55.3439 29.3928 55.6756 29.0073C55.3106 28.655 54.9522 28.292 54.5991 27.9198V27.9211Z" fill="#66CC99"/>
<path d="M51.7686 24.5949C51.5581 24.318 51.3489 24.0385 51.1424 23.7537C47.7543 19.0658 45.0723 13.3287 43.1577 6.69614C42.79 7.05909 42.3623 7.36244 41.8906 7.58896C43.8492 14.2016 46.5711 19.9401 49.9926 24.6572C50.2484 25.0095 50.5096 25.3539 50.772 25.6957C51.0252 25.2638 51.3649 24.889 51.7686 24.5936V24.5949Z" fill="#66CC99"/>
<path d="M53.611 26.8442C53.2646 26.4521 52.9236 26.0507 52.5891 25.6387C52.1681 25.9341 51.8523 26.3633 51.7031 26.8667C51.9709 27.1886 52.2427 27.5038 52.5172 27.8138L53.611 26.8428V26.8442Z" fill="#66CC99"/>
<path d="M50.7823 29.3544L43.3105 35.9856C43.645 36.3473 43.9221 36.7606 44.1299 37.2123L51.7656 30.4353C51.3686 30.1452 51.0341 29.777 50.7823 29.3544Z" fill="#66CC99"/>
<path d="M52.5187 27.8138L51.8086 28.4444C52.0124 28.9014 52.3602 29.2789 52.7959 29.5213L53.5047 28.8921C53.1716 28.5411 52.8438 28.1794 52.5201 27.8125L52.5187 27.8138Z" fill="#66CC99"/>
<path d="M54.5973 27.9211L56.0522 26.6296C55.8577 26.1686 55.5166 25.7844 55.0862 25.5341L53.6113 26.8428C53.9351 27.2098 54.2642 27.5701 54.5973 27.9211Z" fill="#66CC99"/>
<path d="M52.5176 27.8138C52.8413 28.1807 53.1691 28.5411 53.5022 28.8934L54.5974 27.9224C54.263 27.5714 53.9352 27.2111 53.6114 26.8442L52.5176 27.8151V27.8138Z" fill="#66CC99"/>
<path d="M65.0927 19.4857C64.9995 19.4301 64.9089 19.3691 64.8223 19.3042C64.9089 19.3691 64.9995 19.4287 65.0927 19.4857Z" fill="#66CC99"/>
<path d="M63.7062 15.3567C63.6662 15.4561 63.6303 15.5594 63.5996 15.6627C63.6303 15.5581 63.6662 15.4561 63.7062 15.3567Z" fill="#66CC99"/>
<path d="M63.502 17.1199C63.5419 17.3835 63.6152 17.6378 63.7138 17.8776C63.6152 17.6378 63.5433 17.3848 63.502 17.1199Z" fill="#66CC99"/>
<path d="M64.5566 19.083C64.6419 19.1612 64.7312 19.2353 64.8231 19.3042C64.7298 19.2353 64.6419 19.1612 64.5566 19.083Z" fill="#66CC99"/>
<path d="M66.8496 19.9732C67.4851 19.9732 68.078 19.7983 68.587 19.4963C68.0794 19.7983 67.4851 19.9732 66.8496 19.9732Z" fill="#66CC99"/>
<path d="M68.25 13.542C68.3726 13.5976 68.4912 13.6585 68.6057 13.7274C68.4912 13.6585 68.3726 13.5963 68.25 13.542Z" fill="#66CC99"/>
<path d="M69.3015 14.2864C69.2455 14.2268 69.1869 14.1699 69.127 14.1155C69.1869 14.1699 69.2455 14.2281 69.3015 14.2864Z" fill="#66CC99"/>
<path d="M55.0742 15.6627V17.1199H55.6698C55.7018 16.9596 55.7191 16.794 55.7191 16.6244C55.7191 16.284 55.6511 15.9595 55.5299 15.6627H55.0756H55.0742Z" fill="#66CC99"/>
<path d="M63.4629 16.6059C63.4629 16.7808 63.4762 16.9516 63.5015 17.1199C63.4762 16.953 63.4629 16.7808 63.4629 16.6059Z" fill="#66CC99"/>
<path d="M62.2271 15.6627H56.9297C57.0083 15.9701 57.0509 16.2933 57.0509 16.6244C57.0509 16.7927 57.0389 16.9569 57.0176 17.1199H62.1591C62.1405 16.9516 62.1298 16.7794 62.1298 16.6059C62.1298 16.2827 62.1631 15.9674 62.2258 15.6627H62.2271Z" fill="#66CC99"/>
<path d="M68.874 19.3042C68.7874 19.3691 68.6968 19.4287 68.6035 19.4857C68.6968 19.4301 68.7874 19.3691 68.874 19.3042Z" fill="#66CC99"/>
<path d="M68.5859 19.4968C68.5859 19.4968 68.5985 19.4899 68.6055 19.4857C68.5985 19.4899 68.5929 19.4927 68.5859 19.4968Z" fill="#66CC99"/>
<path d="M64.8246 13.9089C64.6181 14.0626 64.4289 14.2401 64.2637 14.4361C64.4302 14.2401 64.6181 14.0626 64.8246 13.9089Z" fill="#66CC99"/>
<path d="M64.4648 12.5617C58.8836 7.46974 51.9821 4.26672 44.5543 3.2772C44.5543 3.30767 44.5569 3.33681 44.5569 3.36728C44.5569 3.85342 44.4823 4.32235 44.3438 4.76214C51.4038 5.70132 57.9656 8.72551 63.2923 13.53C63.6268 13.1485 64.0225 12.82 64.4648 12.5617Z" fill="#66CC99"/>
<path d="M69.127 19.0976C69.2069 19.0247 69.2842 18.9492 69.3561 18.8697C69.2828 18.9492 69.2069 19.026 69.127 19.0976Z" fill="#66CC99"/>
<path d="M63.7305 17.9173C63.9197 18.3637 64.2048 18.7598 64.5579 19.083C64.2048 18.7598 63.921 18.3637 63.7305 17.9173Z" fill="#66CC99"/>
<path d="M62.6785 18.7956L56.1113 24.624C56.5044 24.9194 56.8335 25.2917 57.0799 25.7169L63.5605 19.9652C63.2087 19.6248 62.9103 19.23 62.6785 18.7956Z" fill="#66CC99"/>
<path d="M70.1662 15.9277C70.1103 15.6535 70.0197 15.3925 69.9011 15.1461C69.8771 15.0971 69.8518 15.0481 69.8265 15.0004C69.7745 14.905 69.7172 14.8123 69.6573 14.7222C69.5507 14.5659 69.4321 14.4202 69.3015 14.2838C69.2456 14.2242 69.187 14.1672 69.127 14.1129C69.0471 14.04 68.9631 13.9712 68.8765 13.9076C68.7899 13.8427 68.6993 13.7817 68.6061 13.7261C68.4915 13.6572 68.3729 13.595 68.2503 13.5406C68.193 13.5141 68.1344 13.4903 68.0745 13.4678C67.6947 13.3207 67.2817 13.2399 66.85 13.2399C66.4996 13.2399 66.1612 13.2929 65.8428 13.391C65.7895 13.4069 65.7375 13.4254 65.6856 13.4439C65.6176 13.4691 65.5497 13.4969 65.4844 13.5261C65.535 13.5751 65.5856 13.6228 65.6349 13.6731C67.1338 15.1633 68.4861 16.7582 69.6866 18.4432C70.033 17.9147 70.2355 17.2841 70.2355 16.6072C70.2355 16.3754 70.2115 16.1476 70.1662 15.929V15.9277Z" fill="#66CC99"/>
<path d="M64.5659 14.7342C64.4646 14.6335 64.362 14.5355 64.2608 14.4361C64.0529 14.6798 63.8811 14.9541 63.7492 15.2495C63.7332 15.2852 63.7185 15.3197 63.7039 15.3567C63.6639 15.4561 63.6279 15.5594 63.5973 15.6627H63.6492V17.1199H63.5C63.54 17.3835 63.6133 17.6378 63.7118 17.8776L64.3647 17.2974L65.3413 18.3849L64.5539 19.083C64.6392 19.1612 64.7284 19.2353 64.8204 19.3042C64.907 19.3691 64.9976 19.4287 65.0908 19.4857C65.324 19.6261 65.5745 19.74 65.8396 19.8222C66.158 19.9202 66.4964 19.9732 66.8469 19.9732C67.4824 19.9732 68.0753 19.7983 68.5842 19.4963C67.3998 17.8113 66.0581 16.2178 64.5659 14.7342Z" fill="#66CC99"/>
<path d="M63.5015 17.1199H63.6508V15.6627H63.5988C63.5109 15.9621 63.4629 16.2787 63.4629 16.6059C63.4629 16.7808 63.4762 16.9516 63.5015 17.1199Z" fill="#66CC99"/>
<path d="M65.4841 13.5261C65.4495 13.5406 65.4162 13.5552 65.3828 13.5724C65.2843 13.6201 65.1883 13.6718 65.0951 13.7274C65.0018 13.7831 64.9112 13.844 64.8246 13.9089C64.6181 14.0626 64.4289 14.2401 64.2637 14.4361C64.3649 14.5355 64.4675 14.6335 64.5688 14.7342C66.061 16.2178 67.4027 17.8127 68.5871 19.4963C68.5938 19.4923 68.5991 19.4897 68.6058 19.4857C68.699 19.4301 68.7896 19.3691 68.8763 19.3042C68.9629 19.2393 69.0468 19.1704 69.1267 19.0989C69.2067 19.026 69.2839 18.9505 69.3559 18.8711C69.4771 18.7386 69.5877 18.5955 69.6863 18.4445C68.4845 16.7609 67.1322 15.1647 65.6347 13.6744C65.5854 13.6254 65.5347 13.5764 65.4841 13.5274V13.5261Z" fill="#66CC99"/>
<path d="M64.5569 19.083L65.3443 18.3849L64.3677 17.2974L63.7148 17.8776C63.7202 17.8908 63.7255 17.9041 63.7308 17.9173C63.92 18.3637 64.2051 18.7598 64.5582 19.083H64.5569Z" fill="#66CC99"/>
<path d="M63.7051 15.3567C63.7197 15.321 63.7344 15.2852 63.7504 15.2495C63.7344 15.2852 63.7197 15.3197 63.7051 15.3567Z" fill="#66CC99"/>
<path d="M69.6562 14.7249C69.7175 14.815 69.7735 14.9077 69.8255 15.0031C69.7735 14.9077 69.7162 14.815 69.6562 14.7249Z" fill="#66CC99"/>
<path d="M69.9023 15.1475C70.0209 15.3925 70.1115 15.6548 70.1675 15.929C70.1115 15.6548 70.0209 15.3938 69.9023 15.1475Z" fill="#66CC99"/>
<path d="M65.6849 13.4439C65.617 13.4691 65.549 13.4969 65.4824 13.5261C65.549 13.4969 65.6157 13.4691 65.6836 13.4439H65.6849Z" fill="#66CC99"/>
<path d="M69.3008 14.2864C69.4314 14.4229 69.5513 14.5686 69.6565 14.7249C69.5499 14.5686 69.4314 14.4229 69.3008 14.2864Z" fill="#66CC99"/>
<path d="M68.6055 13.7274C68.6987 13.7831 68.7893 13.844 68.8759 13.9089C68.7893 13.844 68.6987 13.7844 68.6055 13.7274Z" fill="#66CC99"/>
<path d="M68.0742 13.4678C68.1328 13.4903 68.1915 13.5155 68.2501 13.5406C68.1928 13.5142 68.1342 13.4903 68.0742 13.4678Z" fill="#66CC99"/>
<path d="M65.4841 13.5261C65.4494 13.5406 65.4161 13.5552 65.3828 13.5724C65.4161 13.5565 65.4508 13.542 65.4841 13.5261Z" fill="#66CC99"/>
<path d="M75.614 42.5228C77.4838 42.5228 78.9995 41.0158 78.9995 39.1569C78.9995 37.2979 77.4838 35.7909 75.614 35.7909C73.7443 35.7909 72.2285 37.2979 72.2285 39.1569C72.2285 41.0158 73.7443 42.5228 75.614 42.5228Z" fill="#66CC99"/>
<path d="M74.7253 35.9088C73.7754 36.1645 72.9919 36.8215 72.5696 37.6838L72.487 39.0761C72.4737 39.0761 72.3844 39.0694 72.2312 39.0549C72.2312 39.0893 72.2285 39.1224 72.2285 39.1569C72.2285 40.7372 73.3237 42.0618 74.7999 42.4248C74.8759 41.4816 74.9159 40.5305 74.9159 39.5728C74.9159 38.3409 74.8519 37.1182 74.7267 35.9088H74.7253Z" fill="#66CC99"/>
<path d="M76.3123 42.4513C77.8471 42.132 79.0009 40.7782 79.0009 39.1569C79.0009 37.5355 77.8098 36.138 76.2363 35.8479C76.3602 37.0771 76.4255 38.3197 76.4255 39.5728C76.4255 40.5385 76.3869 41.4988 76.3136 42.4513H76.3123Z" fill="#66CC99"/>
<path d="M68.8048 41.2313C66.7756 41.7929 63.6353 42.9268 60.1992 45.1377C58.691 46.1073 57.248 47.2055 55.873 48.4228C56.2901 48.6878 56.6498 49.0335 56.9283 49.4375C58.1993 48.3195 59.5317 47.3088 60.92 46.4094C65.9069 43.1812 70.2943 42.2897 71.9105 42.0579C71.5894 41.6525 71.3336 41.1942 71.159 40.6988C70.5502 40.8034 69.7521 40.969 68.8048 41.2313Z" fill="#66CC99"/>
<path d="M60.9198 33.1946C59.4289 32.2289 58.0033 31.1321 56.647 29.9134C56.3152 30.2856 55.9075 30.5903 55.4492 30.8023C56.9494 32.1719 58.5349 33.3973 60.199 34.4676C63.6351 36.6784 66.7755 37.8123 68.8046 38.374C69.6254 38.6018 70.3355 38.7568 70.9057 38.8615C70.9377 38.3607 71.0483 37.8812 71.2268 37.4348C69.251 37.0732 65.3192 36.0426 60.9198 33.1959V33.1946Z" fill="#66CC99"/>
<path d="M72.5689 37.6838C72.365 38.0998 72.2451 38.5647 72.2305 39.0549C72.385 39.0708 72.473 39.076 72.4863 39.076L72.5689 37.6838Z" fill="#66CC99"/>
<path d="M74.7253 35.9088C74.8506 37.1182 74.9145 38.3409 74.9145 39.5728C74.9145 40.5305 74.8745 41.4816 74.7986 42.4248C75.0597 42.4884 75.3315 42.5228 75.6127 42.5228C75.8512 42.5228 76.0843 42.4976 76.3095 42.4513C76.3841 41.4989 76.4214 40.5385 76.4214 39.5728C76.4214 38.321 76.3574 37.0785 76.2322 35.8479C76.031 35.8108 75.8232 35.7909 75.6113 35.7909C75.3036 35.7909 75.0064 35.832 74.7227 35.9088H74.7253Z" fill="#66CC99"/>
<path d="M76.0738 34.4888C75.3317 29.1504 73.4251 24.0876 70.4779 19.6023C70.1515 19.9917 69.7638 20.3282 69.3281 20.5958C72.0688 24.8227 73.8514 29.5756 74.5642 34.5855C74.9027 34.5086 75.2544 34.4662 75.6155 34.4662C75.77 34.4662 75.9232 34.4742 76.0738 34.4888Z" fill="#66CC99"/>
<path d="M74.6689 43.7534C74.0174 49.2547 72.0829 54.4659 69.0078 59.0386C69.4555 59.2784 69.8592 59.5897 70.2056 59.9553C73.4658 55.1349 75.511 49.6269 76.1812 43.813C75.996 43.8355 75.8068 43.8475 75.6149 43.8475C75.2912 43.8475 74.974 43.8143 74.6689 43.7521V43.7534Z" fill="#66CC99"/>
</g>
<defs>
<clipPath id="clip0_4202_358">
<rect width="79" height="80" fill="white"/>
</clipPath>
</defs>
</svg>
